<svg xmlns="http://www.w3.org/2000/svg" viewBox="0 0 44 44" width="512" height="512" role="img" aria-label="samsbpm sprout mark, transparent">
  
  <ellipse cx="22" cy="37" rx="12" ry="1.6" fill="#F97316" fill-opacity="0.18"></ellipse>
  <path d="M22 37 Q22 28 22 21 Q22 15 22 10" stroke="#C2410C" stroke-width="2.8" stroke-linecap="round" fill="none"></path>
  <path d="M22 25 C 14 24, 10 28, 11 31 C 16 32, 22 30, 22 25 Z" fill="#F97316"></path>
  <path d="M22 18 C 32 16, 36 20, 35 24 C 28 26, 22 23, 22 18 Z" fill="#FB923C"></path>
  <path d="M22 28 Q17 28 13 30" stroke="#9A3412" stroke-opacity="0.55" stroke-width="0.8" fill="none" stroke-linecap="round"></path>
  <path d="M22 21 Q28 21 33 22" stroke="#9A3412" stroke-opacity="0.55" stroke-width="0.8" fill="none" stroke-linecap="round"></path>
  <circle cx="22" cy="10" r="2.2" fill="#C2410C"></circle>
  <circle cx="22" cy="10" r="0.8" fill="#F97316"></circle>
</svg>