<svg xmlns="http://www.w3.org/2000/svg" viewBox="0 0 320 88" width="640" height="176" role="img" aria-label="samsbpm full lockup">
  <defs>
    <linearGradient id="tile2" x1="0" y1="0" x2="1" y2="1" gradientTransform="rotate(62 0.5 0.5)">
      <stop offset="0%" stop-color="#FFB068"></stop>
      <stop offset="50%" stop-color="#F97316"></stop>
      <stop offset="100%" stop-color="#B45309"></stop>
    </linearGradient>
    <clipPath id="round2">
      <rect x="8" y="12" width="64" height="64" rx="19.2" ry="19.2"></rect>
    </clipPath>
  </defs>
  
  <g clip-path="url(#round2)">
    <rect x="8" y="12" width="64" height="64" fill="url(#tile2)"></rect>
    <g transform="translate(8 12) scale(1.4545)">
      <ellipse cx="22" cy="37" rx="12" ry="1.6" fill="#FFFFFF" fill-opacity="0.22"></ellipse>
      <path d="M22 37 Q22 28 22 21 Q22 15 22 10" stroke="#FFFBEB" stroke-width="2.8" stroke-linecap="round" fill="none"></path>
      <path d="M22 25 C 14 24, 10 28, 11 31 C 16 32, 22 30, 22 25 Z" fill="#FFEDD5"></path>
      <path d="M22 18 C 32 16, 36 20, 35 24 C 28 26, 22 23, 22 18 Z" fill="#FFFFFF"></path>
      <path d="M22 28 Q17 28 13 30" stroke="#C2410C" stroke-opacity="0.35" stroke-width="0.8" fill="none" stroke-linecap="round"></path>
      <path d="M22 21 Q28 21 33 22" stroke="#9A3412" stroke-opacity="0.35" stroke-width="0.8" fill="none" stroke-linecap="round"></path>
      <circle cx="22" cy="10" r="2.2" fill="#FFFBEB"></circle>
      <circle cx="22" cy="10" r="0.8" fill="#FFFFFF"></circle>
    </g>
  </g>
  
  <g font-family="-apple-system, BlinkMacSystemFont, &#39;Helvetica Neue&#39;, Helvetica, Arial, sans-serif">
    <text x="86" y="48" font-size="30" font-weight="800" letter-spacing="-0.7" fill="#1c1917">samsbpm<tspan fill="#F97316">.</tspan></text>
    <text x="87" y="68" font-size="13" font-style="italic" font-weight="500" letter-spacing="0.5" fill="#78716c">small business, big tools</text>
  </g>
</svg>